<?xml version="1.0" standalone="no"?>
<!DOCTYPE svg PUBLIC "-//W3C//DTD SVG 20010904//EN"
 "http://www.w3.org/TR/2001/REC-SVG-20010904/DTD/svg10.dtd">
<svg version="1.0" xmlns="http://www.w3.org/2000/svg"
 width="300.000000pt" height="300.000000pt" viewBox="0 0 300.000000 300.000000"
 preserveAspectRatio="xMidYMid meet">
<metadata>
Created by potrace 1.10, written by Peter Selinger 2001-2011
</metadata>
<g transform="translate(0.000000,300.000000) scale(0.100000,-0.100000)"
fill="#000000" stroke="none">
<path d="M1395 2804 c-313 -34 -585 -158 -801 -366 -340 -328 -476 -811 -358
-1266 128 -491 535 -868 1034 -958 124 -23 334 -23 460 0 394 70 742 327 928
686 101 194 144 374 144 600 0 369 -140 696 -405 946 -234 222 -524 343 -852
357 -60 3 -128 3 -150 1z m295 -85 c328 -48 655 -257 835 -534 144 -220 205
-425 205 -685 0 -340 -120 -632 -359 -871 -237 -236 -535 -360 -871 -360 -337
0 -634 123 -871 360 -241 241 -359 530 -359 878 0 336 121 627 359 864 283
281 662 406 1061 348z"/>
<path d="M1360 2639 c-666 -85 -1117 -713 -984 -1367 133 -652 794 -1056 1434
-876 124 35 308 131 412 214 208 168 346 398 404 672 23 109 23 312 0 431 -73
381 -340 707 -697 850 -184 74 -380 100 -569 76z m346 -55 c219 -39 413 -141
575 -303 330 -331 418 -830 220 -1247 -115 -241 -274 -405 -504 -518 -138 -68
-249 -101 -393 -115 -603 -60 -1139 378 -1205 986 -36 334 76 650 315 888 204
203 405 296 716 329 54 6 187 -4 276 -20z"/>
<path d="M1248 2527 c-94 -24 -138 -54 -138 -93 0 -38 72 -218 100 -249 22
-25 27 -37 23 -67 -5 -33 -1 -42 28 -71 l34 -34 90 18 c73 15 95 23 113 45 27
30 25 73 -4 106 -15 16 -15 20 -1 51 14 28 15 55 10 151 -8 152 -17 166 -106
165 -34 0 -101 -10 -149 -22z m212 -64 c0 -32 3 -94 6 -139 l7 -81 -59 -6
c-33 -3 -86 -14 -119 -25 l-60 -18 -48 125 c-26 69 -44 128 -39 133 11 11 159
48 234 57 35 5 66 9 71 10 4 0 7 -25 7 -56z m13 -330 c6 -49 3 -53 -42 -53
-21 0 -60 -7 -87 -15 -27 -8 -50 -15 -51 -15 -3 0 -33 70 -33 76 0 9 132 40
181 43 24 1 27 -3 32 -36z"/>
<path d="M1596 2521 c-12 -13 -21 -57 -32 -144 -14 -112 -14 -129 -1 -148 14
-19 13 -24 -9 -56 -52 -77 -20 -121 109 -155 l87 -22 32 32 c25 24 32 40 32
69 0 28 6 43 24 57 26 21 122 215 122 248 0 36 -19 55 -82 82 -135 56 -251 71
-282 37z m149 -37 c33 -8 90 -26 126 -40 l66 -24 -26 -53 c-15 -28 -41 -84
-59 -123 l-32 -70 -82 28 c-46 15 -95 28 -110 28 -15 0 -30 5 -33 10 -6 9 4
116 21 233 7 43 0 42 129 11z m-95 -329 c19 -4 59 -16 87 -27 l53 -19 -20 -38
-19 -38 -68 23 c-37 13 -78 24 -90 24 -24 0 -27 9 -17 59 5 23 11 30 23 27 9
-2 32 -8 51 -11z"/>
<path d="M899 2368 c-82 -55 -176 -148 -185 -182 -5 -23 0 -34 27 -63 64 -67
182 -163 201 -163 10 0 22 -10 27 -23 12 -30 67 -77 91 -77 18 0 117 75 156
119 28 31 18 74 -27 115 -19 17 -33 40 -34 56 -3 32 -98 203 -132 238 -31 31
-52 28 -124 -20z m138 -66 c23 -42 54 -95 67 -118 l25 -41 -47 -31 c-26 -17
-68 -50 -93 -75 l-47 -44 -69 61 c-38 33 -84 74 -102 89 l-34 28 49 51 c42 43
189 157 204 158 3 0 24 -35 47 -78z m146 -251 c24 -40 22 -45 -20 -73 -21 -14
-53 -40 -71 -59 l-32 -33 -33 32 -32 32 49 43 c53 45 107 86 116 87 3 0 13
-13 23 -29z"/>
<path d="M2043 2346 c-37 -31 -153 -206 -153 -230 0 -10 -18 -35 -39 -55 -66
-61 -65 -71 26 -162 44 -43 87 -79 96 -79 21 0 84 55 92 81 4 11 15 19 28 19
25 0 71 29 169 107 72 57 86 80 67 115 -36 67 -183 206 -235 222 -15 5 -31 -1
-51 -18z m151 -106 c32 -30 71 -72 87 -92 l29 -36 -105 -81 c-58 -45 -109 -81
-113 -81 -4 0 -18 16 -31 36 -14 19 -51 56 -82 81 l-58 45 77 113 77 112 30
-20 c17 -12 56 -46 89 -77z m-259 -229 c22 -21 55 -54 73 -73 l33 -35 -36 -23
-37 -23 -37 39 c-20 21 -51 50 -69 64 l-32 25 23 33 c12 17 27 32 32 32 6 0
28 -18 50 -39z"/>
<path d="M596 2037 c-52 -67 -122 -251 -112 -291 9 -35 39 -50 164 -81 98 -24
117 -26 138 -15 22 12 27 11 52 -13 40 -38 74 -43 105 -15 34 30 91 170 83
202 -7 30 -70 70 -97 63 -14 -4 -23 2 -34 23 -18 34 -214 160 -249 160 -16 0
-34 -11 -50 -33z m73 -10 c9 -8 58 -40 109 -71 51 -32 92 -61 90 -65 -2 -3
-15 -29 -30 -56 -14 -28 -34 -74 -43 -103 -10 -29 -22 -52 -27 -52 -11 0 -252
60 -255 64 -12 12 113 296 130 296 6 0 18 -6 26 -13z m315 -199 c18 -14 17
-16 -7 -64 -13 -27 -30 -66 -37 -87 -9 -30 -16 -37 -31 -32 -10 3 -28 8 -40
11 -26 7 -21 30 26 132 37 78 37 78 89 40z"/>
<path d="M2368 2000 c-50 -15 -216 -110 -232 -134 -11 -18 -24 -24 -46 -24
-32 1 -75 -24 -94 -55 -13 -20 36 -179 65 -208 26 -26 72 -24 107 6 27 23 32
24 58 11 25 -13 43 -12 137 4 136 24 144 27 163 55 13 20 13 30 0 87 -18 77
-58 186 -82 223 -22 34 -43 44 -76 35z m65 -98 c25 -59 67 -201 67 -227 0 -6
-47 -18 -112 -29 -62 -9 -122 -20 -133 -22 -17 -4 -22 3 -34 52 -7 32 -24 82
-37 112 -13 30 -22 57 -19 60 15 16 231 128 236 123 3 -3 18 -35 32 -69z
m-310 -155 c14 -35 28 -80 32 -100 6 -33 5 -37 -18 -42 -46 -12 -59 -3 -73 53
-8 29 -21 66 -30 83 -8 17 -14 32 -12 34 7 6 64 34 69 35 4 0 18 -28 32 -63z"/>
<path d="M1400 1979 c-84 -16 -183 -74 -249 -144 -71 -77 -105 -138 -127 -232
-20 -85 -13 -177 20 -268 30 -82 64 -132 135 -197 192 -176 474 -167 662 21
78 78 114 147 136 260 15 74 15 88 0 162 -21 107 -56 177 -129 255 -115 123
-280 176 -448 143z m181 -39 c184 -35 326 -181 360 -369 52 -293 -219 -564
-511 -512 -197 35 -342 184 -373 381 -45 295 228 556 524 500z"/>
<path d="M1410 1827 c-91 -26 -182 -106 -223 -195 -30 -66 -30 -198 0 -264 30
-66 105 -143 172 -175 47 -23 69 -27 141 -27 72 0 94 4 141 27 67 33 142 109
170 173 69 163 -5 361 -165 439 -64 31 -169 41 -236 22z m149 -68 c179 -38
267 -261 160 -408 -138 -192 -429 -134 -480 95 -30 132 57 275 189 310 60 16
70 16 131 3z"/>
<path d="M472 1597 c-20 -21 -22 -34 -22 -125 0 -120 15 -199 43 -229 26 -29
28 -28 165 6 77 19 120 35 138 52 21 20 28 21 45 11 24 -15 67 -6 98 22 22 20
23 25 16 116 -5 77 -10 99 -27 118 -25 26 -82 30 -112 7 -18 -13 -22 -13 -42
6 -18 16 -42 23 -121 29 -146 14 -157 13 -181 -13z m236 -34 l52 -5 0 -77 c0
-42 5 -94 10 -116 5 -22 8 -41 6 -42 -4 -4 -244 -63 -256 -63 -12 0 -30 120
-34 229 l-4 93 87 -6 c47 -4 110 -9 139 -13z m207 -66 c0 -29 2 -72 5 -97 l5
-44 -38 -9 c-21 -5 -41 -7 -44 -4 -3 3 -7 52 -10 109 l-6 103 44 -3 44 -4 0
-51z"/>
<path d="M2081 1523 c-26 -24 -32 -40 -45 -113 -12 -74 -12 -88 1 -108 21 -33
82 -58 106 -43 15 10 24 7 52 -17 37 -33 200 -92 253 -92 44 0 66 38 86 149
22 119 21 203 -2 224 -27 25 -261 25 -303 0 -26 -15 -30 -16 -46 -1 -35 32
-68 32 -102 1z m89 -55 c0 -41 -19 -151 -29 -167 -7 -11 -16 -11 -46 -1 -33
11 -36 15 -30 39 14 55 25 142 20 151 -4 6 13 10 39 10 45 0 46 -1 46 -32z
m346 -10 c-3 -24 -8 -65 -11 -93 -6 -47 -34 -176 -40 -183 -3 -3 -244 77 -253
84 -2 1 3 34 12 73 9 38 16 90 16 115 l0 46 141 0 140 0 -5 -42z"/>
<path d="M875 1266 c-24 -26 -38 -33 -57 -29 -30 6 -236 -78 -262 -106 -35
-38 -12 -104 83 -238 28 -40 64 -79 80 -88 27 -14 31 -13 72 17 65 47 192 175
185 186 -3 5 7 12 23 15 33 7 91 61 91 85 0 19 -65 129 -99 168 -31 36 -76 32
-116 -10z m106 -38 c12 -24 35 -60 52 -81 l30 -39 -29 -24 c-16 -13 -32 -23
-36 -24 -11 0 -54 60 -88 121 l-29 54 32 17 c18 9 35 17 39 18 4 0 17 -19 29
-42z m-139 -70 c14 -29 42 -75 63 -103 l38 -49 -49 -44 c-27 -24 -73 -64 -102
-90 l-54 -46 -20 24 c-63 79 -159 244 -147 253 6 4 233 105 239 106 3 1 17
-23 32 -51z"/>
<path d="M1999 1247 c-25 -20 -119 -149 -119 -164 0 -29 30 -70 64 -88 19 -11
40 -31 46 -46 7 -15 51 -68 99 -118 110 -115 116 -116 203 -22 64 69 138 183
138 211 0 27 -49 65 -155 119 -68 36 -106 50 -122 46 -16 -4 -25 1 -33 15 -13
24 -68 60 -90 60 -8 -1 -22 -6 -31 -13z m68 -106 c-39 -59 -94 -121 -104 -120
-4 0 -19 13 -31 30 l-24 29 34 38 c18 20 44 54 56 74 l23 37 39 -20 39 -21
-32 -47z m217 -52 l116 -61 -22 -36 c-44 -73 -79 -122 -126 -172 l-47 -52 -97
98 -96 98 42 44 c24 24 56 66 72 93 16 27 32 49 36 49 3 0 59 -27 122 -61z"/>
<path d="M1092 1055 c-17 -14 -37 -41 -43 -60 -7 -18 -23 -38 -35 -44 -32 -14
-184 -207 -184 -233 0 -33 76 -97 178 -151 100 -53 129 -57 160 -24 30 32 105
235 97 265 -4 17 2 32 25 58 37 42 40 86 8 115 -25 23 -128 84 -157 94 -12 3
-30 -4 -49 -20z m105 -55 c37 -22 73 -40 80 -40 7 0 13 -4 13 -9 0 -8 -21 -73
-25 -79 -8 -10 -185 94 -185 108 0 9 39 60 46 60 3 0 35 -18 71 -40z m-107
-119 c32 -21 79 -47 104 -57 34 -14 44 -23 40 -34 -4 -8 -25 -62 -47 -120 -22
-58 -43 -109 -47 -113 -13 -14 -254 119 -274 151 -5 8 151 212 163 212 2 0 30
-17 61 -39z"/>
<path d="M1734 1009 c-113 -56 -129 -96 -68 -168 20 -24 23 -34 15 -49 -16
-30 44 -236 80 -276 l27 -30 58 18 c111 35 232 104 254 146 13 24 -1 54 -68
150 -57 81 -92 120 -109 120 -8 0 -13 12 -13 29 0 32 -56 102 -81 100 -8 0
-51 -18 -95 -40z m135 -71 c-23 -15 -101 -55 -142 -72 -37 -15 -38 -15 -46 7
-23 63 -23 63 16 75 21 7 60 25 88 41 l50 29 24 -35 c19 -29 21 -37 10 -45z
m133 -162 l76 -113 -71 -41 c-40 -23 -83 -45 -97 -50 -14 -6 -48 -19 -76 -30
l-52 -21 -37 130 c-20 72 -35 132 -33 133 1 1 34 15 71 30 37 16 82 39 100 51
18 13 34 23 37 24 3 0 40 -51 82 -113z"/>
<path d="M1362 938 c-28 -31 -37 -74 -22 -104 12 -21 11 -27 -9 -48 -30 -31
-77 -250 -61 -284 16 -35 70 -52 183 -57 124 -5 164 3 189 36 18 24 18 30 4
149 -12 99 -20 128 -37 146 -20 21 -20 24 -5 46 25 35 20 76 -13 109 -28 28
-33 29 -118 29 -80 0 -92 -2 -111 -22z m169 -24 c32 5 37 3 43 -17 17 -63 13
-67 -73 -67 -43 0 -92 3 -108 6 -29 6 -30 6 -20 48 l10 43 56 -9 c31 -5 72 -7
92 -4z m57 -159 c3 -2 32 -224 32 -246 0 -14 -11 -18 -57 -21 -55 -4 -253 9
-261 17 -3 3 27 168 45 241 4 21 9 21 121 16 64 -2 118 -5 120 -7z"/>
</g>
</svg>
